<?xml version="1.0" encoding="us-ascii" standalone="no"?><svg xmlns="http://www.w3.org/2000/svg" xmlns:xlink="http://www.w3.org/1999/xlink" contentStyleType="text/css" height="863px" preserveAspectRatio="none" style="width:666px;height:863px;background:#FFFFFF;" version="1.1" viewBox="0 0 666 863" width="666px" zoomAndPan="magnify"><defs/><g><!--class Usuario--><g id="elem_Usuario"><rect codeLine="3" fill="#F1F1F1" height="118.4375" id="Usuario" rx="2.5" ry="2.5" style="stroke:#181818;stroke-width:0.5;" width="170" x="148.82" y="16"/><ellipse cx="205.07" cy="32" fill="#A9DCDF" rx="11" ry="11" style="stroke:#181818;stroke-width:1.0;"/><path d="M207.2575,33.7656 L203.1169,33.7656 L202.695,34.7969 L203.1169,34.7969 Q203.7263,34.7969 203.9919,35.0313 Q204.2575,35.2656 204.2575,35.6563 Q204.2575,36.0313 203.9919,36.2656 Q203.7263,36.5 203.1169,36.5 L200.82,36.5 Q200.2106,36.5 199.9606,36.2656 Q199.695,36.0313 199.695,35.6406 Q199.695,35.2656 199.9763,35.0313 Q200.2419,34.7813 200.8669,34.7969 L203.5388,28.1406 L202.4294,28.1406 Q201.82,28.1406 201.5544,27.9063 Q201.2888,27.6719 201.2888,27.2813 Q201.2888,26.9063 201.5544,26.6719 Q201.82,26.4375 202.4294,26.4375 L206.1013,26.4375 L209.4919,34.7969 Q210.0856,34.7969 210.2731,34.9375 Q210.6638,35.2031 210.6638,35.6563 Q210.6638,36.0313 210.3981,36.2656 Q210.1481,36.5 209.5388,36.5 L207.2419,36.5 Q206.6325,36.5 206.3669,36.2656 Q206.1013,36.0313 206.1013,35.6406 Q206.1013,35.2656 206.3669,35.0313 Q206.6325,34.7969 207.2419,34.7969 L207.6638,34.7969 L207.2575,33.7656 Z M206.5388,32.0625 L205.1794,28.6875 L203.8044,32.0625 L206.5388,32.0625 Z " fill="#000000"/><text fill="#000000" font-family="sans-serif" font-size="14" font-style="italic" lengthAdjust="spacing" textLength="49" x="225.57" y="37.7285">Usuario</text><line style="stroke:#181818;stroke-width:0.5;" x1="149.82" x2="317.82" y1="48" y2="48"/><text fill="#000000" font-family="sans-serif" font-size="14" lengthAdjust="spacing" textLength="56" x="154.82" y="66.5332">-id: Long</text><text fill="#000000" font-family="sans-serif" font-size="14" lengthAdjust="spacing" textLength="80" x="154.82" y="84.1426">-login: String</text><text fill="#000000" font-family="sans-serif" font-size="14" lengthAdjust="spacing" textLength="121" x="154.82" y="101.752">-senhaHash: String</text><line style="stroke:#181818;stroke-width:0.5;" x1="149.82" x2="317.82" y1="108.8281" y2="108.8281"/><text fill="#000000" font-family="sans-serif" font-size="14" lengthAdjust="spacing" textLength="158" x="154.82" y="127.3613">+realizarLogin(): boolean</text></g><!--class Cliente--><g id="elem_Cliente"><rect codeLine="10" fill="#F1F1F1" height="241.7031" id="Cliente" rx="2.5" ry="2.5" style="stroke:#181818;stroke-width:0.5;" width="261" x="103.32" y="204"/><ellipse cx="207.57" cy="220" fill="#ADD1B2" rx="11" ry="11" style="stroke:#181818;stroke-width:1.0;"/><path d="M210.3356,215.875 Q210.4919,215.6563 210.6794,215.5469 Q210.8669,215.4375 211.0856,215.4375 Q211.4606,215.4375 211.695,215.7031 Q211.9294,215.9531 211.9294,216.5625 L211.9294,218.0156 Q211.9294,218.625 211.695,218.8906 Q211.4606,219.1563 211.0856,219.1563 Q210.7419,219.1563 210.5388,218.9531 Q210.3356,218.7656 210.2263,218.25 Q210.1794,217.8906 209.9919,217.7031 Q209.6638,217.3281 209.0544,217.1094 Q208.445,216.8906 207.82,216.8906 Q207.0544,216.8906 206.4138,217.2188 Q205.7888,217.5469 205.2888,218.2969 Q204.8044,219.0469 204.8044,220.0781 L204.8044,221.1719 Q204.8044,222.4063 205.695,223.2344 Q206.5856,224.0469 208.1794,224.0469 Q209.1169,224.0469 209.7731,223.7969 Q210.1638,223.6406 210.5856,223.2031 Q210.8513,222.9375 210.9919,222.8594 Q211.1481,222.7813 211.3513,222.7813 Q211.6794,222.7813 211.9294,223.0469 Q212.195,223.2969 212.195,223.6406 Q212.195,223.9844 211.8513,224.3906 Q211.3513,224.9688 210.5544,225.2969 Q209.4763,225.75 208.1794,225.75 Q206.6638,225.75 205.4606,225.125 Q204.4763,224.625 203.7888,223.5625 Q203.1013,222.4844 203.1013,221.2031 L203.1013,220.0469 Q203.1013,218.7188 203.7106,217.5781 Q204.3356,216.4219 205.4294,215.8125 Q206.5231,215.1875 207.7575,215.1875 Q208.4919,215.1875 209.1325,215.3594 Q209.7888,215.5156 210.3356,215.875 Z " fill="#000000"/><text fill="#000000" font-family="sans-serif" font-size="14" lengthAdjust="spacing" textLength="44" x="228.07" y="225.7285">Cliente</text><line style="stroke:#181818;stroke-width:0.5;" x1="104.32" x2="363.32" y1="236" y2="236"/><text fill="#000000" font-family="sans-serif" font-size="14" lengthAdjust="spacing" textLength="85" x="109.32" y="254.5332">-nome: String</text><text fill="#000000" font-family="sans-serif" font-size="14" lengthAdjust="spacing" textLength="63" x="109.32" y="272.1426">-rg: String</text><text fill="#000000" font-family="sans-serif" font-size="14" lengthAdjust="spacing" textLength="69" x="109.32" y="289.752">-cpf: String</text><text fill="#000000" font-family="sans-serif" font-size="14" lengthAdjust="spacing" textLength="110" x="109.32" y="307.3613">-endereco: String</text><text fill="#000000" font-family="sans-serif" font-size="14" lengthAdjust="spacing" textLength="108" x="109.32" y="324.9707">-profissao: String</text><text fill="#000000" font-family="sans-serif" font-size="14" lengthAdjust="spacing" textLength="243" x="109.32" y="342.5801">-entidadesEmpregadoras: List&lt;String&gt;</text><text fill="#000000" font-family="sans-serif" font-size="14" lengthAdjust="spacing" textLength="152" x="109.32" y="360.1895">-rendimentos: Double[3]</text><line style="stroke:#181818;stroke-width:0.5;" x1="104.32" x2="363.32" y1="367.2656" y2="367.2656"/><text fill="#000000" font-family="sans-serif" font-size="14" lengthAdjust="spacing" textLength="249" x="109.32" y="385.7988">+introduzirPedido(pedido: Pedido): void</text><text fill="#000000" font-family="sans-serif" font-size="14" lengthAdjust="spacing" textLength="248" x="109.32" y="403.4082">+modificarPedido(pedido: Pedido): void</text><text fill="#000000" font-family="sans-serif" font-size="14" lengthAdjust="spacing" textLength="223" x="109.32" y="421.0176">+consultarPedido(id: Long): Pedido</text><text fill="#000000" font-family="sans-serif" font-size="14" lengthAdjust="spacing" textLength="245" x="109.32" y="438.627">+cancelarPedido(pedido: Pedido): void</text></g><!--class Agente--><g id="elem_Agente"><rect codeLine="24" fill="#F1F1F1" height="136.0469" id="Agente" rx="2.5" ry="2.5" style="stroke:#181818;stroke-width:0.5;" width="260" x="399.82" y="257"/><ellipse cx="503.07" cy="273" fill="#ADD1B2" rx="11" ry="11" style="stroke:#181818;stroke-width:1.0;"/><path d="M505.8356,268.875 Q505.9919,268.6563 506.1794,268.5469 Q506.3669,268.4375 506.5856,268.4375 Q506.9606,268.4375 507.195,268.7031 Q507.4294,268.9531 507.4294,269.5625 L507.4294,271.0156 Q507.4294,271.625 507.195,271.8906 Q506.9606,272.1563 506.5856,272.1563 Q506.2419,272.1563 506.0388,271.9531 Q505.8356,271.7656 505.7263,271.25 Q505.6794,270.8906 505.4919,270.7031 Q505.1638,270.3281 504.5544,270.1094 Q503.945,269.8906 503.32,269.8906 Q502.5544,269.8906 501.9138,270.2188 Q501.2888,270.5469 500.7888,271.2969 Q500.3044,272.0469 500.3044,273.0781 L500.3044,274.1719 Q500.3044,275.4063 501.195,276.2344 Q502.0856,277.0469 503.6794,277.0469 Q504.6169,277.0469 505.2731,276.7969 Q505.6638,276.6406 506.0856,276.2031 Q506.3513,275.9375 506.4919,275.8594 Q506.6481,275.7813 506.8513,275.7813 Q507.1794,275.7813 507.4294,276.0469 Q507.695,276.2969 507.695,276.6406 Q507.695,276.9844 507.3513,277.3906 Q506.8513,277.9688 506.0544,278.2969 Q504.9763,278.75 503.6794,278.75 Q502.1638,278.75 500.9606,278.125 Q499.9763,277.625 499.2888,276.5625 Q498.6013,275.4844 498.6013,274.2031 L498.6013,273.0469 Q498.6013,271.7188 499.2106,270.5781 Q499.8356,269.4219 500.9294,268.8125 Q502.0231,268.1875 503.2575,268.1875 Q503.9919,268.1875 504.6325,268.3594 Q505.2888,268.5156 505.8356,268.875 Z " fill="#000000"/><text fill="#000000" font-family="sans-serif" font-size="14" lengthAdjust="spacing" textLength="45" x="523.57" y="278.7285">Agente</text><line style="stroke:#181818;stroke-width:0.5;" x1="400.82" x2="658.82" y1="289" y2="289"/><text fill="#000000" font-family="sans-serif" font-size="14" lengthAdjust="spacing" textLength="109" x="405.82" y="307.5332">-tipo: TipoAgente</text><text fill="#000000" font-family="sans-serif" font-size="14" lengthAdjust="spacing" textLength="76" x="405.82" y="325.1426">-cnpj: String</text><text fill="#000000" font-family="sans-serif" font-size="14" lengthAdjust="spacing" textLength="123" x="405.82" y="342.752">-razaoSocial: String</text><line style="stroke:#181818;stroke-width:0.5;" x1="400.82" x2="658.82" y1="349.8281" y2="349.8281"/><text fill="#000000" font-family="sans-serif" font-size="14" lengthAdjust="spacing" textLength="233" x="405.82" y="368.3613">+avaliarPedido(pedido: Pedido): void</text><text fill="#000000" font-family="sans-serif" font-size="14" lengthAdjust="spacing" textLength="248" x="405.82" y="385.9707">+modificarPedido(pedido: Pedido): void</text></g><!--class Veiculo--><g id="elem_Veiculo"><rect codeLine="32" fill="#F1F1F1" height="136.0469" id="Veiculo" rx="2.5" ry="2.5" style="stroke:#181818;stroke-width:0.5;" width="119" x="138.32" y="720"/><ellipse cx="171.77" cy="736" fill="#ADD1B2" rx="11" ry="11" style="stroke:#181818;stroke-width:1.0;"/><path d="M174.5356,731.875 Q174.6919,731.6563 174.8794,731.5469 Q175.0669,731.4375 175.2856,731.4375 Q175.6606,731.4375 175.895,731.7031 Q176.1294,731.9531 176.1294,732.5625 L176.1294,734.0156 Q176.1294,734.625 175.895,734.8906 Q175.6606,735.1563 175.2856,735.1563 Q174.9419,735.1563 174.7387,734.9531 Q174.5356,734.7656 174.4262,734.25 Q174.3794,733.8906 174.1919,733.7031 Q173.8637,733.3281 173.2544,733.1094 Q172.645,732.8906 172.02,732.8906 Q171.2544,732.8906 170.6137,733.2188 Q169.9887,733.5469 169.4887,734.2969 Q169.0044,735.0469 169.0044,736.0781 L169.0044,737.1719 Q169.0044,738.4063 169.895,739.2344 Q170.7856,740.0469 172.3794,740.0469 Q173.3169,740.0469 173.9731,739.7969 Q174.3637,739.6406 174.7856,739.2031 Q175.0512,738.9375 175.1919,738.8594 Q175.3481,738.7813 175.5512,738.7813 Q175.8794,738.7813 176.1294,739.0469 Q176.395,739.2969 176.395,739.6406 Q176.395,739.9844 176.0512,740.3906 Q175.5512,740.9688 174.7544,741.2969 Q173.6762,741.75 172.3794,741.75 Q170.8637,741.75 169.6606,741.125 Q168.6762,740.625 167.9887,739.5625 Q167.3012,738.4844 167.3012,737.2031 L167.3012,736.0469 Q167.3012,734.7188 167.9106,733.5781 Q168.5356,732.4219 169.6294,731.8125 Q170.7231,731.1875 171.9575,731.1875 Q172.6919,731.1875 173.3325,731.3594 Q173.9887,731.5156 174.5356,731.875 Z " fill="#000000"/><text fill="#000000" font-family="sans-serif" font-size="14" lengthAdjust="spacing" textLength="46" x="189.87" y="741.7285">Veiculo</text><line style="stroke:#181818;stroke-width:0.5;" x1="139.32" x2="256.32" y1="752" y2="752"/><text fill="#000000" font-family="sans-serif" font-size="14" lengthAdjust="spacing" textLength="107" x="144.32" y="770.5332">-matricula: String</text><text fill="#000000" font-family="sans-serif" font-size="14" lengthAdjust="spacing" textLength="52" x="144.32" y="788.1426">-ano: int</text><text fill="#000000" font-family="sans-serif" font-size="14" lengthAdjust="spacing" textLength="89" x="144.32" y="805.752">-marca: String</text><text fill="#000000" font-family="sans-serif" font-size="14" lengthAdjust="spacing" textLength="96" x="144.32" y="823.3613">-modelo: String</text><text fill="#000000" font-family="sans-serif" font-size="14" lengthAdjust="spacing" textLength="84" x="144.32" y="840.9707">-placa: String</text><line style="stroke:#181818;stroke-width:0.5;" x1="139.32" x2="256.32" y1="848.0469" y2="848.0469"/></g><!--class Pedido--><g id="elem_Pedido"><rect codeLine="40" fill="#F1F1F1" height="118.4375" id="Pedido" rx="2.5" ry="2.5" style="stroke:#181818;stroke-width:0.5;" width="193" x="245.32" y="524"/><ellipse cx="315.57" cy="540" fill="#ADD1B2" rx="11" ry="11" style="stroke:#181818;stroke-width:1.0;"/><path d="M318.3356,535.875 Q318.4919,535.6563 318.6794,535.5469 Q318.8669,535.4375 319.0856,535.4375 Q319.4606,535.4375 319.695,535.7031 Q319.9294,535.9531 319.9294,536.5625 L319.9294,538.0156 Q319.9294,538.625 319.695,538.8906 Q319.4606,539.1563 319.0856,539.1563 Q318.7419,539.1563 318.5388,538.9531 Q318.3356,538.7656 318.2263,538.25 Q318.1794,537.8906 317.9919,537.7031 Q317.6638,537.3281 317.0544,537.1094 Q316.445,536.8906 315.82,536.8906 Q315.0544,536.8906 314.4138,537.2188 Q313.7888,537.5469 313.2888,538.2969 Q312.8044,539.0469 312.8044,540.0781 L312.8044,541.1719 Q312.8044,542.4063 313.695,543.2344 Q314.5856,544.0469 316.1794,544.0469 Q317.1169,544.0469 317.7731,543.7969 Q318.1638,543.6406 318.5856,543.2031 Q318.8513,542.9375 318.9919,542.8594 Q319.1481,542.7813 319.3513,542.7813 Q319.6794,542.7813 319.9294,543.0469 Q320.195,543.2969 320.195,543.6406 Q320.195,543.9844 319.8513,544.3906 Q319.3513,544.9688 318.5544,545.2969 Q317.4763,545.75 316.1794,545.75 Q314.6638,545.75 313.4606,545.125 Q312.4763,544.625 311.7888,543.5625 Q311.1013,542.4844 311.1013,541.2031 L311.1013,540.0469 Q311.1013,538.7188 311.7106,537.5781 Q312.3356,536.4219 313.4294,535.8125 Q314.5231,535.1875 315.7575,535.1875 Q316.4919,535.1875 317.1325,535.3594 Q317.7888,535.5156 318.3356,535.875 Z " fill="#000000"/><text fill="#000000" font-family="sans-serif" font-size="14" lengthAdjust="spacing" textLength="44" x="336.07" y="545.7285">Pedido</text><line style="stroke:#181818;stroke-width:0.5;" x1="246.32" x2="437.32" y1="556" y2="556"/><text fill="#000000" font-family="sans-serif" font-size="14" lengthAdjust="spacing" textLength="56" x="251.32" y="574.5332">-id: Long</text><text fill="#000000" font-family="sans-serif" font-size="14" lengthAdjust="spacing" textLength="120" x="251.32" y="592.1426">-dataCriacao: Date</text><text fill="#000000" font-family="sans-serif" font-size="14" lengthAdjust="spacing" textLength="135" x="251.32" y="609.752">-status: StatusPedido</text><text fill="#000000" font-family="sans-serif" font-size="14" lengthAdjust="spacing" textLength="181" x="251.32" y="627.3613">-parecerFinanceiro: Boolean</text><line style="stroke:#181818;stroke-width:0.5;" x1="246.32" x2="437.32" y1="634.4375" y2="634.4375"/></g><!--class Aluguel--><g id="elem_Aluguel"><rect codeLine="47" fill="#F1F1F1" height="100.8281" id="Aluguel" rx="2.5" ry="2.5" style="stroke:#181818;stroke-width:0.5;" width="240" x="317.82" y="737.5"/><ellipse cx="410.07" cy="753.5" fill="#ADD1B2" rx="11" ry="11" style="stroke:#181818;stroke-width:1.0;"/><path d="M412.8356,749.375 Q412.9919,749.1563 413.1794,749.0469 Q413.3669,748.9375 413.5856,748.9375 Q413.9606,748.9375 414.195,749.2031 Q414.4294,749.4531 414.4294,750.0625 L414.4294,751.5156 Q414.4294,752.125 414.195,752.3906 Q413.9606,752.6563 413.5856,752.6563 Q413.2419,752.6563 413.0388,752.4531 Q412.8356,752.2656 412.7263,751.75 Q412.6794,751.3906 412.4919,751.2031 Q412.1638,750.8281 411.5544,750.6094 Q410.945,750.3906 410.32,750.3906 Q409.5544,750.3906 408.9138,750.7188 Q408.2888,751.0469 407.7888,751.7969 Q407.3044,752.5469 407.3044,753.5781 L407.3044,754.6719 Q407.3044,755.9063 408.195,756.7344 Q409.0856,757.5469 410.6794,757.5469 Q411.6169,757.5469 412.2731,757.2969 Q412.6638,757.1406 413.0856,756.7031 Q413.3513,756.4375 413.4919,756.3594 Q413.6481,756.2813 413.8513,756.2813 Q414.1794,756.2813 414.4294,756.5469 Q414.695,756.7969 414.695,757.1406 Q414.695,757.4844 414.3513,757.8906 Q413.8513,758.4688 413.0544,758.7969 Q411.9763,759.25 410.6794,759.25 Q409.1638,759.25 407.9606,758.625 Q406.9763,758.125 406.2888,757.0625 Q405.6013,755.9844 405.6013,754.7031 L405.6013,753.5469 Q405.6013,752.2188 406.2106,751.0781 Q406.8356,749.9219 407.9294,749.3125 Q409.0231,748.6875 410.2575,748.6875 Q410.9919,748.6875 411.6325,748.8594 Q412.2888,749.0156 412.8356,749.375 Z " fill="#000000"/><text fill="#000000" font-family="sans-serif" font-size="14" lengthAdjust="spacing" textLength="47" x="430.57" y="759.2285">Aluguel</text><line style="stroke:#181818;stroke-width:0.5;" x1="318.82" x2="556.82" y1="769.5" y2="769.5"/><text fill="#000000" font-family="sans-serif" font-size="14" lengthAdjust="spacing" textLength="56" x="323.82" y="788.0332">-id: Long</text><text fill="#000000" font-family="sans-serif" font-size="14" lengthAdjust="spacing" textLength="228" x="323.82" y="805.6426">-contratoCreditoAssociado: Boolean</text><line style="stroke:#181818;stroke-width:0.5;" x1="318.82" x2="556.82" y1="812.7188" y2="812.7188"/><text fill="#000000" font-family="sans-serif" font-size="14" lengthAdjust="spacing" textLength="161" x="323.82" y="831.252">+executarContrato(): void</text></g><!--class TipoAgente--><g id="elem_TipoAgente"><rect codeLine="53" fill="#F1F1F1" height="83.2188" id="TipoAgente" rx="2.5" ry="2.5" style="stroke:#181818;stroke-width:0.5;" width="105" x="354.32" y="33.5"/><ellipse cx="369.32" cy="49.5" fill="#EB937F" rx="11" ry="11" style="stroke:#181818;stroke-width:1.0;"/><path d="M368.1794,50.2969 L368.1794,52.7969 L372.5075,52.7969 L372.5075,51.875 Q372.5075,51.2656 372.7419,51 Q372.9919,50.7344 373.3669,50.7344 Q373.7419,50.7344 373.9763,51 Q374.2106,51.2656 374.2106,51.875 L374.2106,54.5 L366.2106,54.5 Q365.5856,54.5 365.32,54.2656 Q365.07,54.0313 365.07,53.6406 Q365.07,53.2656 365.3356,53.0313 Q365.6013,52.7969 366.2106,52.7969 L366.4763,52.7969 L366.4763,46.1406 L366.2106,46.1406 Q365.5856,46.1406 365.32,45.9063 Q365.07,45.6719 365.07,45.2813 Q365.07,44.9063 365.32,44.6719 Q365.5856,44.4375 366.2106,44.4375 L373.8356,44.4375 L373.8356,47.0313 Q373.8356,47.6406 373.6013,47.9063 Q373.3825,48.1563 372.9919,48.1563 Q372.6169,48.1563 372.3825,47.9063 Q372.1481,47.6406 372.1481,47.0313 L372.1481,46.1406 L368.1794,46.1406 L368.1794,48.5938 L369.6638,48.5938 Q369.6638,47.9375 369.7888,47.75 Q370.0544,47.3438 370.5231,47.3438 Q370.8981,47.3438 371.1325,47.6094 Q371.3669,47.8594 371.3669,48.4688 L371.3669,50.4375 Q371.3669,50.9844 371.2419,51.1719 Q370.9763,51.5625 370.5231,51.5625 Q370.0544,51.5625 369.7888,51.1563 Q369.6638,50.9688 369.6638,50.2969 L368.1794,50.2969 Z " fill="#000000"/><text fill="#000000" font-family="sans-serif" font-size="14" lengthAdjust="spacing" textLength="73" x="383.32" y="55.2285">TipoAgente</text><line style="stroke:#181818;stroke-width:0.5;" x1="355.32" x2="458.32" y1="65.5" y2="65.5"/><text fill="#000000" font-family="sans-serif" font-size="14" lengthAdjust="spacing" textLength="66" x="360.32" y="84.0332">EMPRESA</text><text fill="#000000" font-family="sans-serif" font-size="14" lengthAdjust="spacing" textLength="48" x="360.32" y="101.6426">BANCO</text><line style="stroke:#181818;stroke-width:0.5;" x1="355.32" x2="458.32" y1="108.7188" y2="108.7188"/></g><!--class StatusPedido--><g id="elem_StatusPedido"><rect codeLine="58" fill="#F1F1F1" height="136.0469" id="StatusPedido" rx="2.5" ry="2.5" style="stroke:#181818;stroke-width:0.5;" width="116" x="494.82" y="7"/><ellipse cx="509.82" cy="23" fill="#EB937F" rx="11" ry="11" style="stroke:#181818;stroke-width:1.0;"/><path d="M508.6794,23.7969 L508.6794,26.2969 L513.0075,26.2969 L513.0075,25.375 Q513.0075,24.7656 513.2419,24.5 Q513.4919,24.2344 513.8669,24.2344 Q514.2419,24.2344 514.4763,24.5 Q514.7106,24.7656 514.7106,25.375 L514.7106,28 L506.7106,28 Q506.0856,28 505.82,27.7656 Q505.57,27.5313 505.57,27.1406 Q505.57,26.7656 505.8356,26.5313 Q506.1013,26.2969 506.7106,26.2969 L506.9763,26.2969 L506.9763,19.6406 L506.7106,19.6406 Q506.0856,19.6406 505.82,19.4063 Q505.57,19.1719 505.57,18.7813 Q505.57,18.4063 505.82,18.1719 Q506.0856,17.9375 506.7106,17.9375 L514.3356,17.9375 L514.3356,20.5313 Q514.3356,21.1406 514.1013,21.4063 Q513.8825,21.6563 513.4919,21.6563 Q513.1169,21.6563 512.8825,21.4063 Q512.6481,21.1406 512.6481,20.5313 L512.6481,19.6406 L508.6794,19.6406 L508.6794,22.0938 L510.1638,22.0938 Q510.1638,21.4375 510.2888,21.25 Q510.5544,20.8438 511.0231,20.8438 Q511.3981,20.8438 511.6325,21.1094 Q511.8669,21.3594 511.8669,21.9688 L511.8669,23.9375 Q511.8669,24.4844 511.7419,24.6719 Q511.4763,25.0625 511.0231,25.0625 Q510.5544,25.0625 510.2888,24.6563 Q510.1638,24.4688 510.1638,23.7969 L508.6794,23.7969 Z " fill="#000000"/><text fill="#000000" font-family="sans-serif" font-size="14" lengthAdjust="spacing" textLength="84" x="523.82" y="28.7285">StatusPedido</text><line style="stroke:#181818;stroke-width:0.5;" x1="495.82" x2="609.82" y1="39" y2="39"/><text fill="#000000" font-family="sans-serif" font-size="14" lengthAdjust="spacing" textLength="73" x="500.82" y="57.5332">PENDENTE</text><text fill="#000000" font-family="sans-serif" font-size="14" lengthAdjust="spacing" textLength="84" x="500.82" y="75.1426">EM_ANALISE</text><text fill="#000000" font-family="sans-serif" font-size="14" lengthAdjust="spacing" textLength="78" x="500.82" y="92.752">APROVADO</text><text fill="#000000" font-family="sans-serif" font-size="14" lengthAdjust="spacing" textLength="76" x="500.82" y="110.3613">REJEITADO</text><text fill="#000000" font-family="sans-serif" font-size="14" lengthAdjust="spacing" textLength="85" x="500.82" y="127.9707">CANCELADO</text><line style="stroke:#181818;stroke-width:0.5;" x1="495.82" x2="609.82" y1="135.0469" y2="135.0469"/></g><!--reverse link Usuario to Cliente--><g id="link_Usuario_Cliente"><path codeLine="67" d="M233.82,152.14 C233.82,173.05 233.82,179.47 233.82,203.7 " fill="none" id="Usuario-backto-Cliente" style="stroke:#181818;stroke-width:1.0;"/><polygon fill="none" points="233.82,134.14,227.82,152.14,239.82,152.14,233.82,134.14" style="stroke:#181818;stroke-width:1.0;"/></g><!--reverse link Usuario to Agente--><g id="link_Usuario_Agente"><path codeLine="68" d="M317.0162,145.7014 C360.8462,182.4314 403.84,218.44 449.6,256.78 " fill="none" id="Usuario-backto-Agente" style="stroke:#181818;stroke-width:1.0;"/><polygon fill="none" points="303.22,134.14,313.1624,150.3001,320.87,141.1026,303.22,134.14" style="stroke:#181818;stroke-width:1.0;"/></g><!--link Usuario to Veiculo--><g id="link_Usuario_Veiculo"><path codeLine="71" d="M148.54,128.74 C123.59,148.93 99.38,174.34 85.82,204 C6,378.58 101.61,607.72 159.63,719.63 " fill="none" id="Usuario-Veiculo" style="stroke:#181818;stroke-width:1.0;"/><polygon fill="#000000" points="77.9138,490.1749,80.6825,481.0763,74.8057,481.1866,77.9138,490.1749" style="stroke:#000000;stroke-width:1.0;"/><text fill="#000000" font-family="sans-serif" font-size="13" lengthAdjust="spacing" textLength="38" x="86.82" y="490.4951">possui</text><text fill="#000000" font-family="sans-serif" font-size="13" lengthAdjust="spacing" textLength="7" x="133.9105" y="130.1622">1</text><text fill="#000000" font-family="sans-serif" font-size="13" lengthAdjust="spacing" textLength="20" x="134.6604" y="709.2652">0..*</text></g><!--link Cliente to Pedido--><g id="link_Cliente_Pedido"><path codeLine="74" d="M282.8,446.39 C289.46,462.42 296.26,478.63 302.82,494 C306.95,503.68 311.41,513.93 315.79,523.88 " fill="none" id="Cliente-Pedido" style="stroke:#181818;stroke-width:1.0;"/><polygon fill="#000000" points="309.7786,489.7762,308.9396,480.3027,303.5314,482.6052,309.7786,489.7762" style="stroke:#000000;stroke-width:1.0;"/><text fill="#000000" font-family="sans-serif" font-size="13" lengthAdjust="spacing" textLength="46" x="316.82" y="490.4951">introduz</text><text fill="#000000" font-family="sans-serif" font-size="13" lengthAdjust="spacing" textLength="7" x="278.4293" y="467.3842">1</text><text fill="#000000" font-family="sans-serif" font-size="13" lengthAdjust="spacing" textLength="20" x="291.3988" y="513.1896">0..*</text></g><!--link Agente to Pedido--><g id="link_Agente_Pedido"><path codeLine="75" d="M480.43,393.26 C450.62,433.85 413.02,485.05 384.5,523.88 " fill="none" id="Agente-Pedido" style="stroke:#181818;stroke-width:1.0;"/><polygon fill="#000000" points="421.8603,489.2057,429.5832,483.6551,424.8457,480.1758,421.8603,489.2057" style="stroke:#000000;stroke-width:1.0;"/><text fill="#000000" font-family="sans-serif" font-size="13" lengthAdjust="spacing" textLength="41" x="433.82" y="490.4951">analisa</text><text fill="#000000" font-family="sans-serif" font-size="13" lengthAdjust="spacing" textLength="7" x="467.9757" y="414.6351">1</text><text fill="#000000" font-family="sans-serif" font-size="13" lengthAdjust="spacing" textLength="20" x="368.4829" y="513.1896">0..*</text></g><!--link Pedido to Veiculo--><g id="link_Pedido_Veiculo"><path codeLine="76" d="M300.56,642.17 C283.35,666.42 263.27,694.74 245.44,719.87 " fill="none" id="Pedido-Veiculo" style="stroke:#181818;stroke-width:1.0;"/><polygon fill="#000000" points="280.927,685.2539,288.5575,679.577,283.7634,676.1761,280.927,685.2539" style="stroke:#000000;stroke-width:1.0;"/><text fill="#000000" font-family="sans-serif" font-size="13" lengthAdjust="spacing" textLength="61" x="292.82" y="686.4951">referente a</text><text fill="#000000" font-family="sans-serif" font-size="13" lengthAdjust="spacing" textLength="7" x="288.1049" y="663.8462">1</text><text fill="#000000" font-family="sans-serif" font-size="13" lengthAdjust="spacing" textLength="7" x="243.2656" y="709.0551">1</text></g><!--link Pedido to Aluguel--><g id="link_Pedido_Aluguel"><path codeLine="79" d="M369.33,642.17 C383.57,672.28 400.77,708.65 414.37,737.42 " fill="none" id="Pedido-Aluguel" style="stroke:#181818;stroke-width:1.0;"/><polygon fill="#000000" points="396.9574,685.6959,395.7477,676.2626,390.4339,678.7752,396.9574,685.6959" style="stroke:#000000;stroke-width:1.0;"/><text fill="#000000" font-family="sans-serif" font-size="13" lengthAdjust="spacing" textLength="61" x="403.82" y="686.4951">resulta em</text><text fill="#000000" font-family="sans-serif" font-size="13" lengthAdjust="spacing" textLength="7" x="365.2562" y="663.8462">1</text><text fill="#000000" font-family="sans-serif" font-size="13" lengthAdjust="spacing" textLength="22" x="387.5255" y="726.7141">0..1</text></g><!--link Agente to Aluguel--><g id="link_Agente_Aluguel"><path codeLine="80" d="M523.6,393.25 C515.84,466.93 500.25,588.2 473.82,690 C469.76,705.65 464.1,722.28 458.48,737.28 " fill="none" id="Agente-Aluguel" style="stroke:#181818;stroke-width:1.0;"/><polygon fill="#000000" points="509.8901,588.0885,514.46,579.7479,508.6847,578.6547,509.8901,588.0885" style="stroke:#000000;stroke-width:1.0;"/><text fill="#000000" font-family="sans-serif" font-size="13" lengthAdjust="spacing" textLength="92" x="519.82" y="588.4951">concede cr&#233;dito</text><text fill="#000000" font-family="sans-serif" font-size="13" lengthAdjust="spacing" textLength="22" x="499.8242" y="414.6241">0..1</text><text fill="#000000" font-family="sans-serif" font-size="13" lengthAdjust="spacing" textLength="20" x="439.9791" y="726.5544">0..*</text></g><!--SRC=[hLHDRnCn4Btlhx1o8GMbQiKjgYfjaqKj2ccKb5uGGXDxaWvuxPNjhL20NyEXui2HNv0_nkndTwEYNhXaxScRD-Ctp_PVo6JW81LIW_Tn28xMUS0hQSsATYXEeWZMFZYGeOA8zpu7HrPyYuGO2L9ZCRDcMswqtP8PYnMJr16FvWukmTzreg-4Gz2q0pShyCEZiLXRgn5Cz2EAgY8JJMW2raMCJR57wxQzhSmslJqQXGwbxGKpPpVaFTW3Q2052dsIPWwteAm3pqSY7yugs7bLaJafPRJbVwSsNslyyFfZUHeomLcLxyWjK96omwpyZ4MrvUFTMr8bDBMADYJXUIJhxtCTMcIZyr43hb1W9Efdw5fHusr7qq0P8s_ujmfNGfhiSrzes85TMKcWUnE4UvuW_Ay3jntU8ibSDzvAWGlo7dejWU5yrho6EDd_cokYFfYyXWweBLRry9IF5GIOEE8i9ff2BOuF479Vy1JVTWhC3smsT6_85ECWnqaNXuQETRxDKJzLZKVDzolOYMFAO6Fl2xrLXwLG4h-YpDaFanezx8Y79ayxeooB9EyMosGLy-eYda-kMrYt-nAuIERJP7wJb3cVudaykreLctYnlBwDfzUyN2PlawkRQZrXjcHMh9dnXLYo_IHP0zNT42WkqO7PFu2FcfVYxFjerDpeVh2s7lCidCqSON4LXMAUUzp_Bgpmo38u7GXE6PmS7xySj4uPYynwdvCuRxhPF-p_e6TLKs6Rkz8y9tsEMeHnUuEPf5Rm7q0mR7iFZAj33Uwqsv733Jy_1GtqslhPzCCgrNuuvE5wl6hCKb2Lhu30jDDR1Nfixn7ELfB82agt_rLuYPF-0W00]--></g></svg>