<?xml version="1.0" encoding="us-ascii" standalone="no"?><svg xmlns="http://www.w3.org/2000/svg" xmlns:xlink="http://www.w3.org/1999/xlink" contentStyleType="text/css" height="622px" preserveAspectRatio="none" style="width:1219px;height:622px;background:#FFFFFF;" version="1.1" viewBox="0 0 1219 622" width="1219px" zoomAndPan="magnify"><defs/><g><!--cluster Sistema de Aluguel de Carros--><g id="cluster_Sistema de Aluguel de Carros"><rect fill="none" height="606" rx="2.5" ry="2.5" style="stroke:#181818;stroke-width:1.0;" width="589" x="373" y="7"/><text fill="#000000" font-family="sans-serif" font-size="14" font-weight="bold" lengthAdjust="spacing" textLength="207" x="564" y="23.5332">Sistema de Aluguel de Carros</text></g><g id="elem_UC_Cadastro"><ellipse cx="496.4775" cy="577.7955" fill="#F1F1F1" rx="79.4775" ry="18.2955" style="stroke:#181818;stroke-width:0.5;"/><text fill="#000000" font-family="sans-serif" font-size="14" lengthAdjust="spacing" textLength="113" x="438.756" y="581.8709">Realizar Cadastro</text></g><g id="elem_UC_Login"><ellipse cx="496.6119" cy="508.2224" fill="#F1F1F1" rx="69.1119" ry="16.2224" style="stroke:#181818;stroke-width:0.5;"/><text fill="#000000" font-family="sans-serif" font-size="14" lengthAdjust="spacing" textLength="85" x="451.1119" y="512.739">Efetuar Login</text></g><g id="elem_UC_Introduzir"><ellipse cx="496.2512" cy="137.8502" fill="#F1F1F1" rx="107.2512" ry="23.8502" style="stroke:#181818;stroke-width:0.5;"/><text fill="#000000" font-family="sans-serif" font-size="14" lengthAdjust="spacing" textLength="177" x="407.7512" y="141.5788">Introduzir Pedido de Aluguel</text></g><g id="elem_UC_Modificar"><ellipse cx="496.355" cy="286.171" fill="#F1F1F1" rx="76.355" ry="17.671" style="stroke:#181818;stroke-width:0.5;"/><text fill="#000000" font-family="sans-serif" font-size="14" lengthAdjust="spacing" textLength="105" x="441.1233" y="290.6255">Modificar Pedido</text></g><g id="elem_UC_Consultar"><ellipse cx="496.396" cy="214.9792" fill="#F1F1F1" rx="77.896" ry="17.9792" style="stroke:#181818;stroke-width:0.5;"/><text fill="#000000" font-family="sans-serif" font-size="14" lengthAdjust="spacing" textLength="109" x="439.9355" y="219.2466">Consultar Pedido</text></g><g id="elem_UC_Cancelar"><ellipse cx="496.355" cy="61.171" fill="#F1F1F1" rx="76.355" ry="17.671" style="stroke:#181818;stroke-width:0.5;"/><text fill="#000000" font-family="sans-serif" font-size="14" lengthAdjust="spacing" textLength="105" x="441.1233" y="65.6255">Cancelar Pedido</text></g><g id="elem_UC_Avaliar"><ellipse cx="496.6901" cy="434.038" fill="#F1F1F1" rx="103.1901" ry="23.038" style="stroke:#181818;stroke-width:0.5;"/><text fill="#000000" font-family="sans-serif" font-size="14" lengthAdjust="spacing" textLength="168" x="412.6901" y="437.7665">Avaliar Parecer Financeiro</text></g><g id="elem_UC_Executar"><ellipse cx="496.3789" cy="356.8758" fill="#F1F1F1" rx="79.8789" ry="18.3758" style="stroke:#181818;stroke-width:0.5;"/><text fill="#000000" font-family="sans-serif" font-size="14" lengthAdjust="spacing" textLength="114" x="438.3373" y="360.9024">Executar Contrato</text></g><g id="elem_UC_Credito"><ellipse cx="832.6359" cy="357.1272" fill="#F1F1F1" rx="113.6359" ry="25.1272" style="stroke:#181818;stroke-width:0.5;"/><text fill="#000000" font-family="sans-serif" font-size="14" lengthAdjust="spacing" textLength="191" x="737.1359" y="360.8557">Conceder Contrato de Cr&#233;dito</text></g><!--entity Visitante--><g id="elem_Visitante"><ellipse cx="246.5" cy="547.5" fill="#F1F1F1" rx="8" ry="8" style="stroke:#181818;stroke-width:0.5;"/><path d="M246.5,555.5 L246.5,582.5 M233.5,563.5 L259.5,563.5 M246.5,582.5 L233.5,597.5 M246.5,582.5 L259.5,597.5 " fill="none" style="stroke:#181818;stroke-width:0.5;"/><text fill="#000000" font-family="sans-serif" font-size="14" lengthAdjust="spacing" textLength="54" x="219.5" y="613.5332">Visitante</text></g><!--entity Usuario--><g id="elem_Usuario"><ellipse cx="56" cy="326.5" fill="#F1F1F1" rx="8" ry="8" style="stroke:#181818;stroke-width:0.5;"/><path d="M56,334.5 L56,361.5 M43,342.5 L69,342.5 M56,361.5 L43,376.5 M56,361.5 L69,376.5 " fill="none" style="stroke:#181818;stroke-width:0.5;"/><text fill="#000000" font-family="sans-serif" font-size="14" lengthAdjust="spacing" textLength="100" x="6" y="392.5332">Usu&#225;rio Logado</text></g><!--entity Cliente--><g id="elem_Cliente"><ellipse cx="246.5" cy="184.5" fill="#F1F1F1" rx="8" ry="8" style="stroke:#181818;stroke-width:0.5;"/><path d="M246.5,192.5 L246.5,219.5 M233.5,200.5 L259.5,200.5 M246.5,219.5 L233.5,234.5 M246.5,219.5 L259.5,234.5 " fill="none" style="stroke:#181818;stroke-width:0.5;"/><text fill="#000000" font-family="sans-serif" font-size="14" lengthAdjust="spacing" textLength="44" x="224.5" y="250.5332">Cliente</text></g><!--entity Agente--><g id="elem_Agente"><ellipse cx="246.5" cy="326.5" fill="#F1F1F1" rx="8" ry="8" style="stroke:#181818;stroke-width:0.5;"/><path d="M246.5,334.5 L246.5,361.5 M233.5,342.5 L259.5,342.5 M246.5,361.5 L233.5,376.5 M246.5,361.5 L259.5,376.5 " fill="none" style="stroke:#181818;stroke-width:0.5;"/><text fill="#000000" font-family="sans-serif" font-size="14" lengthAdjust="spacing" textLength="159" x="167" y="392.5332">Agente (Empresa/Banco)</text></g><g id="elem_GMN31"><path d="M1009,335.5 L1009,353 L946.16,357 L1009,361 L1009,378.2031 A0,0 0 0 0 1009,378.2031 L1212,378.2031 A0,0 0 0 0 1212,378.2031 L1212,345.5 L1202,335.5 L1009,335.5 A0,0 0 0 0 1009,335.5 " fill="#FEFFDD" style="stroke:#181818;stroke-width:0.5;"/><path d="M1202,335.5 L1202,345.5 L1212,345.5 L1202,335.5 " fill="#FEFFDD" style="stroke:#181818;stroke-width:0.5;"/><text fill="#000000" font-family="sans-serif" font-size="13" lengthAdjust="spacing" textLength="178" x="1015" y="353.9951">Apenas agentes do tipo Banco</text><text fill="#000000" font-family="sans-serif" font-size="13" lengthAdjust="spacing" textLength="107" x="1015" y="370.3467">concedem cr&#233;dito.</text></g><!--reverse link Usuario to Cliente--><g id="link_Usuario_Cliente"><path d="M120.4084,309.2313 C158.8084,280.3113 195.95,252.33 224.4,230.89 " fill="none" id="Usuario-backto-Cliente" style="stroke:#181818;stroke-width:1.0;"/><polygon fill="none" points="106.03,320.06,124.018,314.0241,116.7988,304.4385,106.03,320.06" style="stroke:#181818;stroke-width:1.0;"/></g><!--reverse link Usuario to Agente--><g id="link_Usuario_Agente"><path d="M124.03,357 C142.58,357 146.18,357 166.77,357 " fill="none" id="Usuario-backto-Agente" style="stroke:#181818;stroke-width:1.0;"/><polygon fill="none" points="106.03,357,124.03,363,124.03,351,106.03,357" style="stroke:#181818;stroke-width:1.0;"/></g><!--link Visitante to UC_Cadastro--><g id="link_Visitante_UC_Cadastro"><path d="M273.57,578 C307.34,578 361.7,578 410.95,578 " fill="none" id="Visitante-to-UC_Cadastro" style="stroke:#181818;stroke-width:1.0;"/><polygon fill="#181818" points="416.95,578,407.95,574,411.95,578,407.95,582,416.95,578" style="stroke:#181818;stroke-width:1.0;"/></g><!--link Usuario to UC_Login--><g id="link_Usuario_UC_Login"><path d="M106.01,384.17 C124.76,393.97 146.56,404.67 167,413 C262.79,452.06 374.5243,480.608 439.8543,495.718 " fill="none" id="Usuario-to-UC_Login" style="stroke:#181818;stroke-width:1.0;"/><polygon fill="#181818" points="445.7,497.07,437.8328,491.1448,440.8286,495.9433,436.0301,498.9391,445.7,497.07" style="stroke:#181818;stroke-width:1.0;"/></g><!--link Cliente to UC_Introduzir--><g id="link_Cliente_UC_Introduzir"><path d="M268.64,208.44 C304.66,197.25 373.52,175.8798 427.35,159.1598 " fill="none" id="Cliente-to-UC_Introduzir" style="stroke:#181818;stroke-width:1.0;"/><polygon fill="#181818" points="433.08,157.38,423.2986,156.2297,428.305,158.8631,425.6716,163.8696,433.08,157.38" style="stroke:#181818;stroke-width:1.0;"/></g><!--link Cliente to UC_Modificar--><g id="link_Cliente_UC_Modificar"><path d="M268.69,221.45 C292.19,228.58 331.24,240.32 365,250 C391.88,257.71 416.1823,264.4479 440.6923,271.1479 " fill="none" id="Cliente-to-UC_Modificar" style="stroke:#181818;stroke-width:1.0;"/><polygon fill="#181818" points="446.48,272.73,438.8533,266.4984,441.657,271.4116,436.7438,274.2153,446.48,272.73" style="stroke:#181818;stroke-width:1.0;"/></g><!--link Cliente to UC_Consultar--><g id="link_Cliente_UC_Consultar"><path d="M268.64,215 C301.5,215 360.45,215 412.46,215 " fill="none" id="Cliente-to-UC_Consultar" style="stroke:#181818;stroke-width:1.0;"/><polygon fill="#181818" points="418.46,215,409.46,211,413.46,215,409.46,219,418.46,215" style="stroke:#181818;stroke-width:1.0;"/></g><!--link Cliente to UC_Cancelar--><g id="link_Cliente_UC_Cancelar"><path d="M268.54,186.18 C289.88,158.99 325.35,119.07 365,96 C385.58,84.03 404.5195,77.4241 426.9195,72.1541 " fill="none" id="Cliente-to-UC_Cancelar" style="stroke:#181818;stroke-width:1.0;"/><polygon fill="#181818" points="432.76,70.78,423.0831,68.9474,427.8929,71.9251,424.9153,76.7348,432.76,70.78" style="stroke:#181818;stroke-width:1.0;"/></g><!--link Agente to UC_Modificar--><g id="link_Agente_UC_Modificar"><path d="M326.07,332.51 C339.06,328.58 352.39,324.62 365,321 C391.38,313.42 415.0986,306.991 439.3886,300.581 " fill="none" id="Agente-to-UC_Modificar" style="stroke:#181818;stroke-width:1.0;"/><polygon fill="#181818" points="445.19,299.05,435.4673,297.4788,440.3555,300.3258,437.5085,305.214,445.19,299.05" style="stroke:#181818;stroke-width:1.0;"/></g><!--link Agente to UC_Avaliar--><g id="link_Agente_UC_Avaliar"><path d="M326.31,381.47 C361.63,392.43 396.88,403.3805 429.66,413.5605 " fill="none" id="Agente-to-UC_Avaliar" style="stroke:#181818;stroke-width:1.0;"/><polygon fill="#181818" points="435.39,415.34,427.9813,408.8507,430.615,413.8571,425.6086,416.4908,435.39,415.34" style="stroke:#181818;stroke-width:1.0;"/></g><!--link Agente to UC_Executar--><g id="link_Agente_UC_Executar"><path d="M326.31,357 C355.1,357 381.66,357 410.47,357 " fill="none" id="Agente-to-UC_Executar" style="stroke:#181818;stroke-width:1.0;"/><polygon fill="#181818" points="416.47,357,407.47,353,411.47,357,407.47,361,416.47,357" style="stroke:#181818;stroke-width:1.0;"/></g><!--reverse link UC_Executar to UC_Credito--><g id="link_UC_Executar_UC_Credito"><path d="M582.65,357 C625.09,357 672.11,357 718.79,357 " fill="none" id="UC_Executar-backto-UC_Credito" style="stroke:#181818;stroke-width:1.0;stroke-dasharray:7.0,7.0;"/><polygon fill="#181818" points="576.65,357,585.65,361,581.65,357,585.65,353,576.65,357" style="stroke:#181818;stroke-width:1.0;"/><text fill="#000000" font-family="sans-serif" font-size="13" lengthAdjust="spacing" textLength="53" x="635" y="353.4951">&#171;extend&#187;</text></g><!--SRC=[TLHDZzGm3BtdLrXpMJZCS4UhaORHy261X7QrN959F2NQDgwI52qB_1Z40N7WL_IFuRHDlqQSsZo_FDlFRaiwHuWCtXQV8nZhIKVBJeLxwshqM46D-XuBkerVIu8KHbUKfDGL729x2WgrF67pmGOhiKWRm03ZAOVlGjF-z9RXBHTek2C9XW9boh6qbEyFxpbqAD89dfogMbBYinVeD3_jc7qerVEQFBhsjs26Sd633coRUljzFsOSz5Qe6jk3pQqDaIhifCgcQAXChqVqdiC6lYc0Apa5xfBT1OPNajq6mPj06eD8t12MzX6zy0o6w8UcZn_pUKu-dIbA5SaUwpAnEmZhCflXqQAPo1idggPvj1xUax52cihFcXDdVlCT6tks6lF5p1xnEVd8BZHbl22F-88iewBoaZl0_-jk6EjCwF15x4mwA6CY3o-jInfsydLWB6nz8DsaIgMsw36Et1nOzQN9q4JkHkxRFyPE5u-Uqb7zI2jt8ore-Lwmacevg77jORlTBqOzx5Z6-ybEwzcZizci8jCSLe79ytKW6pmk-rffYMVpbkXeapHxUeZaGlkB8VqPW45SOw1Gasx_YcHdrwVqPGOr6GMxfjujjE0vN5zJ4ZFxlN8isVhV3v_d1WCSQd9YEdOLXRGLqTOCtSUVjaRtywf03pFQAT64fAZ-0G00]--></g></svg>